<?xml version="1.0" encoding="UTF-8" standalone="no"?>
<svg xmlns="http://www.w3.org/2000/svg"
   width="50"
   height="50">
    <rect
       x="3"
       y="3"
       width="48"
       height="48"
       style="fill:#8ae234;stroke:#4e9a06;stroke-width:6;stroke-linecap:round;stroke-linejoin:round;stroke-miterlimit:4;stroke-opacity:1" />
  <path
     d="M 56.289062,51.373047 C 58.932266,51.938172 60.99216,53.113953 62.46875,54.900391 C 63.963511,56.686866 64.710906,58.892593 64.710938,61.517578 C 64.710906,65.546232 63.325491,68.663416 60.554688,70.869141 C 57.78383,73.07487 53.846334,74.177734 48.742188,74.177734 C 47.028632,74.177734 45.260405,74.004557 43.4375,73.658203 C 41.632804,73.330078 39.764317,72.828777 37.832031,72.154297 L 37.832031,66.822266 C 39.363275,67.7155 41.040357,68.389979 42.863281,68.845703 C 44.686187,69.301436 46.591133,69.529301 48.578125,69.529297 C 52.041648,69.529301 54.67576,68.845708 56.480469,67.478516 C 58.303361,66.111335 59.214818,64.124358 59.214844,61.517578 C 59.214818,59.111342 58.367163,57.23374 56.671875,55.884766 C 54.99477,54.517597 52.652325,53.834004 49.644531,53.833984 L 44.886719,53.833984 L 44.886719,49.294922 L 49.863281,49.294922 C 52.579408,49.294946 54.657531,48.757186 56.097656,47.681641 C 57.537736,46.587917 58.257788,45.020211 58.257812,42.978516 C 58.257788,40.882194 57.510393,39.278029 56.015625,38.166016 C 54.539042,37.035844 52.415346,36.47074 49.644531,36.470703 C 48.131496,36.47074 46.509102,36.634802 44.777344,36.962891 C 43.045563,37.291052 41.140617,37.801468 39.0625,38.494141 L 39.0625,33.572266 C 41.158847,32.988973 43.11848,32.551473 44.941406,32.259766 C 46.782539,31.96814 48.514308,31.822307 50.136719,31.822266 C 54.329406,31.822307 57.647111,32.779337 60.089844,34.693359 C 62.532523,36.58923 63.753876,39.159539 63.753906,42.404297 C 63.753876,44.664742 63.106741,46.578803 61.8125,48.146484 C 60.518202,49.695987 58.677058,50.771507 56.289062,51.373047 M 75.785156,66.439453 L 81.554688,66.439453 L 81.554688,73.384766 L 75.785156,73.384766 L 75.785156,66.439453 M 75.785156,44.427734 L 81.554688,44.427734 L 81.554688,51.373047 L 75.785156,51.373047 L 75.785156,44.427734 M 98.890625,68.736328 L 118.16797,68.736328 L 118.16797,73.384766 L 92.246094,73.384766 L 92.246094,68.736328 C 94.342442,66.567064 97.195303,63.659515 100.80469,60.013672 C 104.43228,56.349626 106.71092,53.988952 107.64062,52.931641 C 109.40883,50.944684 110.6393,49.267602 111.33203,47.900391 C 112.04294,46.515001 112.39841,45.156929 112.39844,43.826172 C 112.39841,41.656933 111.63279,39.888705 110.10156,38.521484 C 108.58852,37.154333 106.61066,36.47074 104.16797,36.470703 C 102.43618,36.47074 100.60415,36.771521 98.671875,37.373047 C 96.757804,37.974645 94.707025,38.886102 92.519531,40.107422 L 92.519531,34.529297 C 94.743483,33.636107 96.821606,32.961629 98.753906,32.505859 C 100.68619,32.050172 102.45441,31.822307 104.05859,31.822266 C 108.28774,31.822307 111.66013,32.879598 114.17578,34.994141 C 116.69138,37.10876 117.94919,39.934278 117.94922,43.470703 C 117.94919,45.147815 117.63018,46.742865 116.99219,48.255859 C 116.37237,49.750675 115.23305,51.518902 113.57422,53.560547 C 113.11846,54.089212 111.66925,55.62046 109.22656,58.154297 C 106.78384,60.669935 103.33853,64.197275 98.890625,68.736328" />
</svg>
