<?xml version="1.0" encoding="iso-8859-1"?>
<!-- Generator: Adobe Illustrator 18.0.0, SVG Export Plug-In . SVG Version: 6.00 Build 0)  -->
<!DOCTYPE svg PUBLIC "-//W3C//DTD SVG 1.1//EN" "http://www.w3.org/Graphics/SVG/1.1/DTD/svg11.dtd">
<svg version="1.1" id="Capa_1" xmlns="http://www.w3.org/2000/svg" xmlns:xlink="http://www.w3.org/1999/xlink" x="0px" y="0px"
	 viewBox="0 0 294.003 294.003" style="enable-background:new 0 0 294.003 294.003;" xml:space="preserve">
<g>
	<polygon points="74.643,163.521 74.643,120.466 45.682,163.521 	"/>
	<path d="M281.503,10.27H12.5C5.597,10.27,0,15.866,0,22.77v248.464c0,6.903,5.597,12.5,12.5,12.5h269.003
		c6.903,0,12.5-5.597,12.5-12.5V22.77C294.003,15.866,288.406,10.27,281.503,10.27z M103.045,184.747h-5.027v13.664
		c0,6.455-5.233,11.688-11.688,11.688s-11.688-5.233-11.688-11.688v-13.664H39.231c-8.92,0-16.151-7.231-16.151-16.151
		c0-3.251,0.981-6.426,2.815-9.11l47.889-70.101c2.474-3.621,6.575-5.786,10.96-5.786c7.331,0,13.274,5.943,13.274,13.274v66.648
		h5.027c5.862,0,10.613,4.752,10.613,10.613S108.906,184.747,103.045,184.747z M147.045,200.407c-11.046,0-20-8.954-20-20
		s8.954-20,20-20s20,8.954,20,20S158.091,200.407,147.045,200.407z M147.045,133.29c-11.046,0-20-8.954-20-20s8.954-20,20-20
		s20,8.954,20,20S158.091,133.29,147.045,133.29z M254.51,199.485c-8.078,7.793-18.133,11.688-30.164,11.688
		c-11.401,0-20.854-3.279-28.359-9.84c-3.375-2.949-6.112-6.306-8.213-10.072c-1.899-3.405-1.978-7.532-0.211-11.007
		s5.148-5.847,9.019-6.316l0.012-0.001c4.975-0.604,9.748,2.12,11.768,6.707c1.003,2.278,2.321,4.204,3.954,5.78
		c3.266,3.152,7.219,4.727,11.859,4.727c4.984,0,9.181-1.891,12.59-5.672c3.408-3.781,5.113-8.879,5.113-15.297
		c0-6.072-1.633-10.885-4.898-14.438c-3.266-3.551-7.248-5.328-11.945-5.328c-0.007,0-0.015,0-0.022,0
		c-2.725,0.002-5.316-1.174-7.111-3.224c-1.795-2.05-2.625-4.779-2.26-7.479l0.006-0.044c0.519-3.83,3.458-6.875,7.266-7.534
		c3.536-0.612,6.421-1.895,8.653-3.848c3.438-3.008,5.156-7.004,5.156-11.988c0-4.238-1.261-7.619-3.781-10.141
		c-2.521-2.52-5.873-3.781-10.055-3.781c-4.125,0-7.648,1.434-10.57,4.297c-1.257,1.233-2.302,2.709-3.135,4.429
		c-2.248,4.643-7.297,7.251-12.383,6.387l-0.051-0.009c-3.293-0.559-6.137-2.62-7.695-5.575c-1.558-2.954-1.651-6.466-0.254-9.5
		c0.886-1.923,1.864-3.666,2.936-5.229c3.122-4.555,7.477-8.135,13.063-10.742c5.586-2.605,11.845-3.91,18.777-3.91
		c11.859,0,21.369,3.781,28.531,11.344c5.9,6.188,8.852,13.178,8.852,20.969c0,11.059-6.045,19.881-18.133,26.469
		c7.219,1.547,12.99,5.014,17.316,10.398c4.325,5.387,6.488,11.889,6.488,19.508C266.627,182.271,262.588,191.694,254.51,199.485z"
		/>
</g>
<g>
</g>
<g>
</g>
<g>
</g>
<g>
</g>
<g>
</g>
<g>
</g>
<g>
</g>
<g>
</g>
<g>
</g>
<g>
</g>
<g>
</g>
<g>
</g>
<g>
</g>
<g>
</g>
<g>
</g>
</svg>
